<svg width="200" height="200" viewBox="0 0 200 200" xmlns="http://www.w3.org/2000/svg">
  <!-- 背景 -->
  <rect x="0" y="0" width="200" height="200" fill="white"/>
  
  <!-- 二维码网格 -->
  <!-- 左上角定位图案 -->
  <rect x="20" y="20" width="60" height="60" fill="black"/>
  <rect x="30" y="30" width="40" height="40" fill="white"/>
  <rect x="40" y="40" width="20" height="20" fill="black"/>
  
  <!-- 右上角定位图案 -->
  <rect x="120" y="20" width="60" height="60" fill="black"/>
  <rect x="130" y="30" width="40" height="40" fill="white"/>
  <rect x="140" y="40" width="20" height="20" fill="black"/>
  
  <!-- 左下角定位图案 -->
  <rect x="20" y="120" width="60" height="60" fill="black"/>
  <rect x="30" y="130" width="40" height="40" fill="white"/>
  <rect x="40" y="140" width="20" height="20" fill="black"/>
  
  <!-- 数据区域模拟 -->
  <rect x="40" y="100" width="20" height="20" fill="black"/>
  <rect x="80" y="40" width="20" height="20" fill="black"/>
  <rect x="100" y="80" width="20" height="20" fill="black"/>
  <rect x="140" y="100" width="20" height="20" fill="black"/>
  <rect x="80" y="140" width="20" height="20" fill="black"/>
  <rect x="100" y="120" width="20" height="20" fill="black"/>
  <rect x="60" y="140" width="20" height="20" fill="black"/>
  <rect x="120" y="60" width="20" height="20" fill="black"/>
  <rect x="40" y="60" width="20" height="20" fill="black"/>
  <rect x="140" y="140" width="20" height="20" fill="black"/>
  <rect x="60" y="80" width="20" height="20" fill="black"/>
  <rect x="100" y="60" width="20" height="20" fill="black"/>
  <rect x="160" y="40" width="20" height="20" fill="black"/>
  <rect x="40" y="160" width="20" height="20" fill="black"/>
  
  <!-- 文字说明 -->
  <text x="100" y="185" font-family="Arial, sans-serif" font-size="10" text-anchor="middle" fill="black">扫码关注公众号</text>
</svg>